# xmcd
#
# Track frame offsets: 
#        150
#        21502
#        53930
#        77633
#        106590
#        135932
#        153197
#        174657
#        187908
#        212572
#
# Disc length: 3065 seconds
#
# Revision: 1
# Processed by: cddbd v1.5.2PL0 Copyright (c) Steve Scherf et al.
# Submitted via: ExactAudioCopyFreeDBPlugin 1.0
#
DISCID=740bf70a
DTITLE=Billy Paul - 1999 - Super Hits
DYEAR=1999
DGENRE=
TTITLE0=Me And Mrs. Jones
TTITLE1=Let's Make A Baby
TTITLE2=Am I Black Enough For You
TTITLE3=Let's Stay Together
TTITLE4=Your Song
TTITLE5=Let's Fall In Love All Over Again
TTITLE6=The Whole Town's Talking
TTITLE7=Thanks For Saving My Life
TTITLE8=When Love Is New
TTITLE9=Ebony Woman
EXTD=
EXTT0=
EXTT1=
EXTT2=
EXTT3=
EXTT4=
EXTT5=
EXTT6=
EXTT7=
EXTT8=
EXTT9=
PLAYORDER=
